<?xml version="1.0" standalone="no"?>
<!DOCTYPE svg PUBLIC "-//W3C//DTD SVG 20010904//EN"
 "http://www.w3.org/TR/2001/REC-SVG-20010904/DTD/svg10.dtd">
<svg version="1.0" xmlns="http://www.w3.org/2000/svg"
 width="525.000000pt" height="509.000000pt" viewBox="0 0 525.000000 509.000000"
 preserveAspectRatio="xMidYMid meet">

<g transform="translate(0.000000,509.000000) scale(0.100000,-0.100000)"
fill="#000000" stroke="none">
<path d="M2775 4965 c6 -2 44 -13 85 -25 397 -113 647 -293 864 -619 247 -373
358 -767 358 -1271 0 -222 -11 -318 -53 -499 -11 -46 -19 -90 -17 -99 3 -17
112 231 146 333 74 219 112 448 112 670 0 261 -41 447 -144 655 -70 140 -130
224 -251 349 -119 123 -260 231 -425 325 -137 78 -181 94 -368 136 -74 17
-142 35 -152 40 -10 6 -52 10 -92 9 -40 0 -68 -2 -63 -4z"/>
<path d="M2105 4894 c-183 -25 -260 -46 -411 -112 -39 -17 -83 -36 -98 -42
-56 -21 -19 -18 82 6 57 13 155 31 219 39 104 14 129 14 242 0 476 -58 923
-327 1267 -760 194 -245 311 -461 421 -775 l54 -155 -6 100 c-17 275 -87 531
-219 800 -294 596 -723 875 -1386 898 -74 3 -148 3 -165 1z"/>
<path d="M1790 4604 c-477 -46 -950 -308 -1149 -637 -13 -21 -22 -40 -20 -42
2 -2 44 30 93 71 230 191 415 284 679 341 110 24 143 27 327 27 214 0 330 -14
540 -65 384 -92 734 -287 1114 -620 56 -49 52 -37 -24 76 -68 101 -100 139
-203 244 -293 299 -645 509 -978 582 -85 18 -292 31 -379 23z"/>
<path d="M4040 4513 c0 -4 30 -37 68 -73 109 -107 242 -336 300 -520 94 -295
102 -621 26 -969 -46 -206 -114 -394 -215 -591 -79 -156 -138 -244 -284 -426
-68 -85 -120 -154 -116 -154 35 0 244 165 357 281 250 259 429 566 510 874 32
123 44 366 25 510 -58 434 -331 878 -658 1069 -7 4 -13 4 -13 -1z"/>
<path d="M1565 4143 c-185 -22 -277 -41 -400 -86 -348 -125 -645 -394 -836
-757 -57 -106 -77 -168 -108 -315 -16 -77 -34 -153 -40 -168 -6 -16 -11 -54
-10 -85 1 -54 1 -55 10 -22 74 276 183 470 378 674 334 347 785 537 1373 578
169 12 380 2 483 -22 22 -6 85 -17 140 -25 55 -8 113 -18 129 -21 70 -15 -16
35 -154 89 -304 118 -727 189 -965 160z"/>
<path d="M1870 3750 c-406 -32 -931 -267 -1212 -542 -146 -144 -282 -375 -347
-588 -48 -161 -56 -224 -56 -470 0 -247 11 -338 57 -489 19 -63 87 -205 94
-198 2 2 -3 37 -10 78 -8 41 -22 149 -31 242 -15 155 -15 177 0 304 30 248
101 425 276 686 110 165 159 224 281 343 200 195 472 381 743 510 110 52 278
114 309 114 9 0 16 5 16 10 0 6 -6 9 -12 9 -7 -1 -56 -5 -108 -9z"/>
<path d="M4844 3550 c3 -19 14 -84 26 -145 49 -254 50 -347 6 -542 -116 -513
-472 -983 -971 -1280 -195 -117 -374 -200 -575 -269 -108 -36 -81 -42 97 -19
440 56 852 237 1123 492 87 82 192 207 237 283 161 269 248 649 222 973 -12
153 -71 355 -141 487 -27 52 -29 53 -24 20z"/>
<path d="M2834 3186 l-339 -335 -165 165 c-91 90 -169 164 -173 164 -12 0 -8
-349 4 -373 6 -12 42 -52 80 -89 l69 -66 0 62 c0 35 3 66 7 70 4 3 47 -33 95
-81 l89 -88 250 253 c138 138 254 252 259 252 6 0 11 -266 12 -653 3 -604 4
-655 21 -680 23 -35 57 -57 101 -64 l36 -6 0 902 c0 495 -2 901 -3 901 -2 0
-156 -151 -343 -334z"/>
<path d="M1399 3234 c-106 -77 -279 -226 -361 -310 -277 -284 -465 -661 -500
-1004 -40 -398 139 -930 401 -1191 69 -69 258 -219 275 -219 4 0 -25 35 -64
79 -94 103 -140 166 -195 263 -266 473 -240 1179 65 1788 95 191 248 413 383
557 42 45 71 83 64 83 -3 0 -33 -21 -68 -46z"/>
<path d="M1820 2388 c0 -742 -6 -682 70 -652 25 10 48 29 62 53 23 36 23 36
20 411 -1 206 2 395 7 420 l8 45 249 -253 c137 -139 254 -252 259 -252 6 0 46
36 90 80 44 44 83 80 87 80 5 0 8 -135 8 -301 l0 -301 28 7 c46 11 85 39 107
75 19 34 20 53 23 473 1 240 -1 437 -6 437 -4 0 -68 -63 -141 -140 -73 -78
-148 -152 -167 -166 l-34 -26 -334 338 -335 339 -1 -667z"/>
<path d="M1211 2534 c-17 -36 -31 -68 -31 -71 0 -2 -8 -23 -19 -46 -55 -123
-109 -300 -143 -467 -20 -101 -23 -143 -22 -345 0 -199 3 -243 22 -330 92
-416 280 -691 634 -927 164 -109 323 -183 458 -213 148 -32 230 -56 230 -67 0
-4 32 -8 71 -8 83 0 84 14 1 31 -298 61 -650 300 -838 569 -157 224 -292 524
-349 774 -69 306 -69 663 -1 1034 13 70 23 128 21 130 -1 2 -17 -27 -34 -64z"/>
<path d="M2152 2129 c3 -273 4 -286 26 -327 17 -31 35 -49 65 -63 23 -10 48
-19 55 -19 9 0 12 61 12 270 l0 270 -42 46 c-23 25 -59 59 -81 76 l-39 31 4
-284z"/>
<path d="M5066 2305 c-100 -330 -167 -446 -375 -656 -205 -205 -358 -309 -591
-402 -313 -124 -604 -180 -935 -180 -202 0 -256 6 -502 58 -37 8 -81 15 -98
14 -29 0 -28 -1 18 -25 133 -69 345 -139 582 -190 124 -28 142 -29 375 -29
230 1 252 2 355 27 409 98 708 303 936 641 118 175 190 357 214 542 3 28 15
83 26 123 11 40 19 87 17 105 -3 29 -5 27 -22 -28z"/>
<path d="M1381 1900 c-1 -51 29 -297 44 -360 145 -601 454 -1038 875 -1237
115 -54 135 -63 205 -84 373 -118 786 -95 1127 62 37 18 67 34 65 35 -2 2 -30
-3 -63 -12 -150 -39 -250 -54 -363 -54 -118 0 -314 26 -421 56 -631 178 -1167
751 -1441 1539 -16 47 -28 70 -28 55z"/>
<path d="M1866 1358 c174 -293 513 -604 832 -762 109 -54 205 -89 341 -123
100 -26 119 -27 336 -27 202 0 241 3 322 22 315 75 551 200 748 397 80 79 194
229 183 240 -2 2 -46 -32 -98 -77 -232 -199 -467 -302 -783 -344 -142 -19
-402 -14 -557 10 -312 49 -669 190 -970 384 -91 59 -253 189 -288 232 -33 40
-83 77 -66 48z"/>
</g>
</svg>
